<?xml version="1.0" encoding="UTF-8" standalone="no"?>
<!-- Created with Inkscape (http://www.inkscape.org/) -->

<svg
   width="1920"
   height="1920"
   viewBox="0 0 1920 1920"
   version="1.1"
   id="svg5"
   xml:space="preserve"
   inkscape:export-filename="../../Pictures/Inkscape/logo-2.svg"
   inkscape:export-xdpi="164.95"
   inkscape:export-ydpi="164.95"
   sodipodi:docname="drawing-2.svg"
   inkscape:version="1.2.2 (b0a8486541, 2022-12-01)"
   xmlns:inkscape="http://www.inkscape.org/namespaces/inkscape"
   xmlns:sodipodi="http://sodipodi.sourceforge.net/DTD/sodipodi-0.dtd"
   xmlns="http://www.w3.org/2000/svg"
   xmlns:svg="http://www.w3.org/2000/svg"><sodipodi:namedview
     id="namedview7"
     pagecolor="#505050"
     bordercolor="#eeeeee"
     borderopacity="1"
     inkscape:showpageshadow="0"
     inkscape:pageopacity="0"
     inkscape:pagecheckerboard="0"
     inkscape:deskcolor="#505050"
     inkscape:document-units="px"
     showgrid="false"
     inkscape:zoom="0.39560138"
     inkscape:cx="947.92389"
     inkscape:cy="1027.5495"
     inkscape:window-width="1910"
     inkscape:window-height="1004"
     inkscape:window-x="0"
     inkscape:window-y="40"
     inkscape:window-maximized="1"
     inkscape:current-layer="g11354" /><defs
     id="defs2"><inkscape:path-effect
       effect="fillet_chamfer"
       id="path-effect7893"
       is_visible="true"
       lpeversion="1"
       nodesatellites_param="F,0,0,1,0,10,0,1 @ F,0,0,1,0,10,0,1 @ F,0,0,1,0,10,0,1 @ F,0,0,1,0,10,0,1 @ F,0,0,1,0,10,0,1 @ F,0,0,1,0,10,0,1"
       unit="px"
       method="auto"
       mode="F"
       radius="10"
       chamfer_steps="1"
       flexible="false"
       use_knot_distance="true"
       apply_no_radius="true"
       apply_with_radius="true"
       only_selected="false"
       hide_knots="false" /><inkscape:path-effect
       effect="fillet_chamfer"
       id="path-effect7893-2"
       is_visible="true"
       lpeversion="1"
       nodesatellites_param="F,0,0,1,0,10,0,1 @ F,0,0,1,0,10,0,1 @ F,0,0,1,0,10,0,1 @ F,0,0,1,0,10,0,1 @ F,0,0,1,0,10,0,1 @ F,0,0,1,0,10,0,1"
       unit="px"
       method="auto"
       mode="F"
       radius="10"
       chamfer_steps="1"
       flexible="false"
       use_knot_distance="true"
       apply_no_radius="true"
       apply_with_radius="true"
       only_selected="false"
       hide_knots="false" /></defs><g
     inkscape:label="Layer 1"
     inkscape:groupmode="layer"
     id="layer1"><rect
       style="fill:#f4f4f4;fill-opacity:1;stroke-width:1.186"
       id="rect4865"
       width="1920"
       height="1920"
       x="2.0904777"
       y="3.827991"
       ry="534.98792" /><g
       id="g11354"
       transform="matrix(1.148775,0,0,1.148775,-57.773489,297.53499)"
       style="fill:#000000"><rect
         style="fill:#176640;fill-opacity:1;stroke-width:2.96547"
         id="rect4077"
         width="271.22504"
         height="243.3998"
         x="276.58594"
         y="-26.954407"
         ry="61.560604"
         rx="52.295036" /><rect
         style="fill:#176640;fill-opacity:1;stroke-width:2.96547"
         id="rect4077-6"
         width="271.22504"
         height="243.3998"
         x="-1588.7355"
         y="-429.50861"
         ry="61.560604"
         rx="52.295036"
         transform="rotate(-147.11341)" /><rect
         style="fill:#176640;fill-opacity:1;stroke-width:2.98851"
         id="rect4332"
         width="556.60376"
         height="119.75394"
         x="445.46735"
         y="32.914387"
         ry="12.75458" /><rect
         style="fill:#176640;fill-opacity:1;stroke-width:2.98851"
         id="rect4332-2"
         width="570.02069"
         height="134.91948"
         x="-1411.6755"
         y="-339.20013"
         ry="12.75458"
         transform="rotate(-145.57955)" /><rect
         style="fill:#5dd59b;fill-opacity:1;stroke-width:4.01519;stroke-dasharray:none"
         id="rect8308"
         width="613.4104"
         height="100.45251"
         x="506.1492"
         y="-1073.4266"
         transform="matrix(0.33589664,0.94189885,-0.93979598,0.34173603,0,0)" /><path
         sodipodi:type="star"
         style="fill:#176640;fill-opacity:1;stroke-width:1.00008;stroke-dasharray:none"
         id="path4386"
         inkscape:flatsided="true"
         sodipodi:sides="6"
         sodipodi:cx="609.86401"
         sodipodi:cy="191.22977"
         sodipodi:r1="52.274616"
         sodipodi:r2="28.191362"
         sodipodi:arg1="1.3002122"
         sodipodi:arg2="1.823811"
         inkscape:rounded="-0.0046708112"
         inkscape:randomized="0"
         d="m 614.17641,239.02824 c -8.97379,-2.34445 -22.26696,-5.78148 -31.25254,-8.08052 -5.34915,-1.36864 -10.83596,-6.75985 -12.29835,-12.08407 -2.45654,-8.94376 -6.12657,-22.1745 -8.62833,-31.10575 -1.48931,-5.31682 0.43621,-12.76415 4.31594,-16.69272 6.51725,-6.59931 16.14038,-16.39302 22.6242,-23.02523 3.85985,-3.94819 11.27218,-6.0043 16.61429,-4.60865 8.97379,2.34445 22.26696,5.78147 31.25253,8.08052 5.34916,1.36863 10.83597,6.75984 12.29835,12.08407 2.45655,8.94376 6.12658,22.17449 8.62834,31.10575 1.4893,5.31682 -0.43622,12.76414 -4.31594,16.69272 -6.51725,6.5993 -16.14038,16.39302 -22.6242,23.02523 -3.85985,3.94819 -11.27219,6.0043 -16.61429,4.60865 z"
         transform="matrix(3.4296524,-0.86849944,0.87405679,3.4078464,-1185.6467,-5.131345)"
         inkscape:path-effect="#path-effect7893" /><path
         sodipodi:type="star"
         style="fill:#176640;fill-opacity:1;stroke-width:1.00008;stroke-dasharray:none"
         id="path4386-7"
         inkscape:flatsided="true"
         sodipodi:sides="6"
         sodipodi:cx="609.86401"
         sodipodi:cy="191.22977"
         sodipodi:r1="52.274616"
         sodipodi:r2="28.191362"
         sodipodi:arg1="1.3002122"
         sodipodi:arg2="1.823811"
         inkscape:rounded="-0.0046708112"
         inkscape:randomized="0"
         d="m 614.17641,239.02824 c -8.97379,-2.34445 -22.26696,-5.78148 -31.25254,-8.08052 -5.34915,-1.36864 -10.83596,-6.75985 -12.29835,-12.08407 -2.45654,-8.94376 -6.12657,-22.1745 -8.62833,-31.10575 -1.48931,-5.31682 0.43621,-12.76415 4.31594,-16.69272 6.51725,-6.59931 16.14038,-16.39302 22.6242,-23.02523 3.85985,-3.94819 11.27218,-6.0043 16.61429,-4.60865 8.97379,2.34445 22.26696,5.78147 31.25253,8.08052 5.34916,1.36863 10.83597,6.75984 12.29835,12.08407 2.45655,8.94376 6.12658,22.17449 8.62834,31.10575 1.4893,5.31682 -0.43622,12.76414 -4.31594,16.69272 -6.51725,6.5993 -16.14038,16.39302 -22.6242,23.02523 -3.85985,3.94819 -11.27219,6.0043 -16.61429,4.60865 z"
         transform="matrix(3.4296524,-0.86849944,0.87405679,3.4078464,-1670.0291,619.85266)"
         inkscape:path-effect="#path-effect7893-2" /><rect
         style="fill:#5dd59b;fill-opacity:1;stroke-width:2.81451;stroke-dasharray:none"
         id="rect8306"
         width="481.10059"
         height="119.31521"
         x="780.34277"
         y="432.31857"
         ry="44.210968" /><rect
         style="fill:#176640;fill-opacity:1;stroke-width:2.99169;stroke-dasharray:none"
         id="rect8245"
         width="570.93353"
         height="126.51115"
         x="-81.430481"
         y="853.07343"
         ry="13.54456"
         transform="matrix(0.63890136,-0.76928867,0.76989478,0.63817085,0,0)" /><path
         id="path9162"
         style="fill:#5dd59b;fill-opacity:1;stroke-width:12.1966;stroke-dasharray:none"
         d="m 1401.6024,487.22647 a 154.09679,154.09679 0 0 0 -135.5233,152.97308 154.09679,154.09679 0 0 0 154.0973,154.09676 154.09679,154.09679 0 0 0 154.0967,-154.09725 154.09679,154.09679 0 0 0 -154.0972,-154.09676 154.09679,154.09679 0 0 0 -18.5735,1.12417 z m 10.2922,84.76613 a 68.707359,68.707359 0 0 1 8.2813,-0.50065 68.707359,68.707359 0 0 1 68.7076,68.70713 68.707359,68.707359 0 0 1 -68.7072,68.70758 68.707359,68.707359 0 0 1 -68.7075,-68.70713 68.707359,68.707359 0 0 1 60.4258,-68.20693 z"
         transform="rotate(6.0431958)" /></g></g></svg>
